<?xml version="1.0" encoding="utf-8"?>
<svg xmlns="http://www.w3.org/2000/svg" width="132" height="131" viewBox="0 0 132 131">
    <g fill="none" fill-rule="evenodd">
        <g>
            <g transform="translate(-944 -9250) translate(949.7 9250.29)">
                <g stroke="#014E60" stroke-width="8.123" opacity=".9">
                    <path stroke-linejoin="round" d="M0 15.586H103.787V110.349H0z"/>
                    <path d="M68.174 36.551L58.663 36.551M86.224 36.551L76.713 36.551M78.969 14.683L78.969.451M51.894 14.683L51.894.451M24.819 14.683L24.819.451M68.174 54.601L58.663 54.601M86.224 54.601L76.713 54.601M32.074 54.601L22.563 54.601M50.124 54.601L40.612 54.601M68.174 72.651L58.663 72.651M86.224 72.651L76.713 72.651M32.074 72.651L22.563 72.651M50.124 72.651L40.612 72.651M32.074 90.701L22.563 90.701M50.124 90.701L40.612 90.701"/>
                </g>
                <circle cx="98.791" cy="102.71" r="24.786" fill="#50D9A7" stroke="#F4F4F4" stroke-width="5.122"/>
                <path stroke="#FFF" stroke-width="5.317" d="M108.922 94.805l-12.048 13.116-6.904-5.504"/>
            </g>
        </g>
    </g>
</svg>
