<?xml version="1.0" encoding="UTF-8"?>
<svg width="77px" height="77px" viewBox="0 0 77 77" version="1.1" xmlns="http://www.w3.org/2000/svg" xmlns:xlink="http://www.w3.org/1999/xlink">
    <!-- Generator: sketchtool 50.2 (55047) - http://www.bohemiancoding.com/sketch -->
    <title>B5071AFD-9816-40B9-9B41-297F8AAE68AD</title>
    <desc>Created with sketchtool.</desc>
    <defs></defs>
    <g id="Page-1" stroke="none" stroke-width="1" fill="none" fill-rule="evenodd" stroke-linecap="round" stroke-linejoin="round">
        <g id="EY-Compass---1920px" transform="translate(-506.000000, -4686.000000)" stroke="#2AB8FF" stroke-width="2">
            <g id="05" transform="translate(0.000000, 4400.000000)">
                <g id="01" transform="translate(368.000000, 287.000000)">
                    <g id="Behavior-Data-" transform="translate(139.000000, 0.000000)">
                        <path d="M13.5,7.5003 C13.5,8.3283 12.828,9.0003 12,9.0003 C11.172,9.0003 10.5,8.3283 10.5,7.5003 C10.5,6.6723 11.172,6.0003 12,6.0003 C12.828,6.0003 13.5,6.6723 13.5,7.5003 Z" id="Stroke-1702"></path>
                        <path d="M12,7.5003 L12,0.000300000001" id="Stroke-1704"></path>
                        <path d="M28.5,7.5003 C28.5,8.3283 27.828,9.0003 27,9.0003 C26.172,9.0003 25.5,8.3283 25.5,7.5003 C25.5,6.6723 26.172,6.0003 27,6.0003 C27.828,6.0003 28.5,6.6723 28.5,7.5003 Z" id="Stroke-1706"></path>
                        <path d="M27,7.5003 L27,0.000300000001" id="Stroke-1708"></path>
                        <path d="M43.5,7.5003 C43.5,8.3283 42.828,9.0003 42,9.0003 C41.172,9.0003 40.5,8.3283 40.5,7.5003 C40.5,6.6723 41.172,6.0003 42,6.0003 C42.828,6.0003 43.5,6.6723 43.5,7.5003 Z" id="Stroke-1710"></path>
                        <path d="M42,7.5003 L42,0.000300000001" id="Stroke-1712"></path>
                        <path d="M58.125,5.6253 L69.375,16.8753" id="Stroke-1714"></path>
                        <polyline id="Stroke-1716" points="22.5 41.2503 28.125 41.2503 30 45.0003 33.75 46.8753 35.625 50.6253"></polyline>
                        <path d="M16.5,57.0003 L18,58.5003" id="Stroke-1718"></path>
                        <path d="M63.5742,11.4261 L30.0012,44.9991" id="Stroke-1720"></path>
                        <path d="M54,9.384 L54,4.5 C54,2.016 51.984,0 49.5,0 L4.5,0 C2.016,0 0,2.016 0,4.5 L0,70.5 C0,72.984 2.016,75 4.5,75 L49.5,75 C51.984,75 54,72.984 54,70.5 L54,32.481" id="Stroke-1722"></path>
                        <path d="M33.75,52.5003 L73.353,13.3533 C74.37,12.3333 75,10.9293 75,9.3753 C75,7.8213 74.37,6.4173 73.353,5.3973 L69.603,1.6473 C68.583,0.6303 67.179,0.000300000001 65.625,0.000300000001 C64.071,0.000300000001 62.667,0.6303 61.647,1.6473 L22.5,41.2503 L15,60.0003 L33.75,52.5003 Z" id="Stroke-1724"></path>
                        <path d="M33.75,52.5003 L73.353,13.3533 C74.37,12.3333 75,10.9293 75,9.3753 C75,7.8213 74.37,6.4173 73.353,5.3973 L69.603,1.6473 C68.583,0.6303 67.179,0.000300000001 65.625,0.000300000001 C64.071,0.000300000001 62.667,0.6303 61.647,1.6473 L22.5,41.2503 L15,60.0003 L33.75,52.5003 Z" id="Stroke-1726"></path>
                    </g>
                </g>
            </g>
        </g>
    </g>
</svg>