<?xml version="1.0" encoding="UTF-8"?>
<svg width="1216px" height="640px" viewBox="0 0 1216 640" version="1.1" xmlns="http://www.w3.org/2000/svg" xmlns:xlink="http://www.w3.org/1999/xlink">
    <!-- Generator: sketchtool 50.2 (55047) - http://www.bohemiancoding.com/sketch -->
    <title>5BF2E549-4A0F-44DD-BED7-090443AF542C</title>
    <desc>Created with sketchtool.</desc>
    <defs>
        <circle id="path-1" cx="200" cy="200" r="200"></circle>
        <path d="M200.4,406.445267 C314.225887,406.445267 406.5,314.183406 406.5,200.372633 C406.5,86.5618606 314.225887,-5.7 200.4,-5.7 C86.5741131,-5.7 -5.7,86.5618606 -5.7,200.372633 C-5.7,314.183406 86.5741131,406.445267 200.4,406.445267 Z" id="path-3"></path>
        <mask id="mask-4" maskContentUnits="userSpaceOnUse" maskUnits="objectBoundingBox" x="0" y="0" width="412.2" height="412.145267" fill="white">
            <use xlink:href="#path-3"></use>
        </mask>
        <path d="M200.4,406.445267 C314.225887,406.445267 406.5,314.183406 406.5,200.372633 C406.5,86.5618606 314.225887,-5.7 200.4,-5.7 C86.5741131,-5.7 -5.7,86.5618606 -5.7,200.372633 C-5.7,314.183406 86.5741131,406.445267 200.4,406.445267 Z" id="path-5"></path>
        <mask id="mask-6" maskContentUnits="userSpaceOnUse" maskUnits="objectBoundingBox" x="0" y="0" width="412.2" height="412.145267" fill="white">
            <use xlink:href="#path-5"></use>
        </mask>
        <path d="M200.4,406.445267 C314.225887,406.445267 406.5,314.183406 406.5,200.372633 C406.5,86.5618606 314.225887,-5.7 200.4,-5.7 C86.5741131,-5.7 -5.7,86.5618606 -5.7,200.372633 C-5.7,314.183406 86.5741131,406.445267 200.4,406.445267 Z" id="path-7"></path>
        <mask id="mask-8" maskContentUnits="userSpaceOnUse" maskUnits="objectBoundingBox" x="0" y="0" width="412.2" height="412.145267" fill="white">
            <use xlink:href="#path-7"></use>
        </mask>
        <path d="M200.4,406.445267 C314.225887,406.445267 406.5,314.183406 406.5,200.372633 C406.5,86.5618606 314.225887,-5.7 200.4,-5.7 C86.5741131,-5.7 -5.7,86.5618606 -5.7,200.372633 C-5.7,314.183406 86.5741131,406.445267 200.4,406.445267 Z" id="path-9"></path>
        <mask id="mask-10" maskContentUnits="userSpaceOnUse" maskUnits="objectBoundingBox" x="0" y="0" width="412.2" height="412.145267" fill="white">
            <use xlink:href="#path-9"></use>
        </mask>
        <path d="M200.4,406.445267 C314.225887,406.445267 406.5,314.183406 406.5,200.372633 C406.5,86.5618606 314.225887,-5.7 200.4,-5.7 C86.5741131,-5.7 -5.7,86.5618606 -5.7,200.372633 C-5.7,314.183406 86.5741131,406.445267 200.4,406.445267 Z" id="path-11"></path>
        <mask id="mask-12" maskContentUnits="userSpaceOnUse" maskUnits="objectBoundingBox" x="0" y="0" width="412.2" height="412.145267" fill="white">
            <use xlink:href="#path-11"></use>
        </mask>
    </defs>
    <g id="Page-1" stroke="none" stroke-width="1" fill="none" fill-rule="evenodd">
        <g id="EY-Compass---1920px" transform="translate(-352.000000, -5112.000000)">
            <g id="05" transform="translate(0.000000, 4400.000000)">
                <g id="Data" transform="translate(352.000000, 712.000000)">
                    <rect id="Mask" fill="#FAFAFA" x="0" y="0" width="1216" height="640"></rect>
                    <g id="Legend" transform="translate(608.000000, 220.000000)">
                        <g id="01">
                            <circle id="Oval" stroke="#3B89FF" stroke-width="6" cx="12" cy="20" r="9"></circle>
                            <text id="Collaboration" opacity="0.900000036" font-family="Lato-Regular, Lato" font-size="22" font-weight="normal" line-spacing="40" fill="#1A1A1A">
                                <tspan x="48" y="22">Collaboration</tspan>
                            </text>
                        </g>
                        <g id="02" transform="translate(0.000000, 80.000000)">
                            <circle id="Oval-Copy" stroke="#FFBD00" stroke-width="6" cx="12" cy="20" r="9"></circle>
                            <text id="Mindfulness" opacity="0.900000036" font-family="Lato-Regular, Lato" font-size="22" font-weight="normal" line-spacing="40" fill="#1A1A1A">
                                <tspan x="48" y="22">Mindfulness</tspan>
                            </text>
                        </g>
                        <g id="03" transform="translate(0.000000, 160.000000)">
                            <circle id="Oval-Copy-2" stroke="#4DCBD3" stroke-width="6" cx="12" cy="23" r="9"></circle>
                            <text id="Integrity" opacity="0.900000036" font-family="Lato-Regular, Lato" font-size="22" font-weight="normal" line-spacing="40" fill="#1A1A1A">
                                <tspan x="48" y="22">Integrity</tspan>
                            </text>
                        </g>
                        <g id="04" transform="translate(280.000000, 0.000000)">
                            <circle id="Oval-Copy-3" stroke="#FF405B" stroke-width="6" cx="12" cy="20" r="9"></circle>
                            <text id="Learning" opacity="0.900000036" font-family="Lato-Regular, Lato" font-size="22" font-weight="normal" line-spacing="40" fill="#1A1A1A">
                                <tspan x="48" y="22">Learning</tspan>
                            </text>
                        </g>
                        <g id="05" transform="translate(280.000000, 80.000000)">
                            <circle id="Oval-Copy-4" stroke="#4BF69B" stroke-width="6" cx="12" cy="20" r="9"></circle>
                            <text id="Innovation-Copy" opacity="0.900000036" font-family="Lato-Regular, Lato" font-size="22" font-weight="normal" line-spacing="40" fill="#1A1A1A">
                                <tspan x="48" y="22">Innovation</tspan>
                            </text>
                        </g>
                    </g>
                    <g id="Pie-chart" transform="translate(120.000000, 120.000000)">
                        <g id="Cirlce">
                            <mask id="mask-2" fill="white">
                                <use xlink:href="#path-1"></use>
                            </mask>
                            <g id="Oval-7"></g>
                            <g id="#161032:20%" stroke-dasharray="259.0971313476562,2061" mask="url(#mask-2)" stroke="#00D4FF" stroke-width="412.2">
                                <use mask="url(#mask-4)" xlink:href="#path-3"></use>
                            </g>
                            <g id="#FAFF81:0.2" stroke-dasharray="259.0971313476562,2061" mask="url(#mask-2)" transform="translate(200.400000, 200.372633) rotate(-72.000000) translate(-200.400000, -200.372633) " stroke="#4BF69B" stroke-width="412.2">
                                <use mask="url(#mask-6)" xlink:href="#path-5"></use>
                            </g>
                            <g id="#FFC53A:40%" stroke-dasharray="518.1942626953124,2061" mask="url(#mask-2)" transform="translate(200.400000, 200.372633) rotate(-144.000000) translate(-200.400000, -200.372633) " stroke="#3B89FF" stroke-width="412.2">
                                <use mask="url(#mask-8)" xlink:href="#path-7"></use>
                            </g>
                            <g id="#E06D06:.1" stroke-dasharray="129.5485656738281,2061" mask="url(#mask-2)" transform="translate(200.400000, 200.372633) rotate(-288.000000) translate(-200.400000, -200.372633) " stroke="#FFBD00" stroke-width="412.2">
                                <use mask="url(#mask-10)" xlink:href="#path-9"></use>
                            </g>
                            <g id="#B26700:10%" stroke-dasharray="129.5485656738281,2061" mask="url(#mask-2)" transform="translate(200.400000, 200.372633) rotate(-324.000000) translate(-200.400000, -200.372633) " stroke="#FF405B" stroke-width="412.2">
                                <use mask="url(#mask-12)" xlink:href="#path-11"></use>
                            </g>
                        </g>
                        <g id="%" transform="translate(47.000000, 70.000000)" fill="#FAFAFA" font-family="NotoSerif-Bold, Noto Serif" font-size="21" font-weight="bold" line-spacing="30">
                            <text id="20%-copy">
                                <tspan x="288.248779" y="88">20%</tspan>
                            </text>
                            <text id="40%">
                                <tspan x="17.2487793" y="22">40%</tspan>
                            </text>
                            <text id="10%">
                                <tspan x="0.248779297" y="231">10%</tspan>
                            </text>
                            <text id="10%-copy">
                                <tspan x="83.2487793" y="287">10%</tspan>
                            </text>
                            <text id="20%" opacity="0.900000036">
                                <tspan x="228.248779" y="264">20%</tspan>
                            </text>
                        </g>
                        <g id="ProTracks" transform="translate(72.000000, 72.000000)">
                            <circle id="Oval-7-Copy-2" fill="#000000" opacity="0.100000001" transform="translate(128.000000, 128.000000) rotate(-360.000000) translate(-128.000000, -128.000000) " cx="128.092486" cy="128.092486" r="128.092486"></circle>
                            <circle id="Oval-7-Copy" fill="#FFFFFF" transform="translate(128.000000, 128.000000) rotate(-360.000000) translate(-128.000000, -128.000000) " cx="128.080925" cy="128.080925" r="112.080925"></circle>
                            <text id="Areas-of-Behavior-Ch" font-family="NotoSerif-Bold, Noto Serif" font-size="18" font-weight="bold" line-spacing="32" fill="#666666">
                                <tspan x="46.3188477" y="123">Areas of Behavior </tspan>
                                <tspan x="94.4125977" y="155">Change </tspan>
                            </text>
                        </g>
                    </g>
                </g>
            </g>
        </g>
    </g>
</svg>