<?xml version="1.0" encoding="UTF-8"?>
<svg width="89px" height="77px" viewBox="0 0 89 77" version="1.1" xmlns="http://www.w3.org/2000/svg" xmlns:xlink="http://www.w3.org/1999/xlink">
    <!-- Generator: sketchtool 50.2 (55047) - http://www.bohemiancoding.com/sketch -->
    <title>486B36D2-41E4-4CFE-867C-E9D5F33C5993</title>
    <desc>Created with sketchtool.</desc>
    <defs></defs>
    <g id="Page-1" stroke="none" stroke-width="1" fill="none" fill-rule="evenodd" stroke-linecap="round" stroke-linejoin="round">
        <g id="EY-Compass---1920px" transform="translate(-1332.000000, -4686.000000)" stroke="#2AB8FF" stroke-width="2">
            <g id="05" transform="translate(0.000000, 4400.000000)">
                <g id="03" transform="translate(1200.000000, 287.000000)">
                    <g id="Organizational-Insights" transform="translate(133.000000, 0.000000)">
                        <path d="M0,24 L40.827,50.295 C41.706,50.739 42.747,51 43.869,51 C44.991,51 46.032,50.739 46.911,50.295 L46.92,50.295 L87,24" id="Stroke-60"></path>
                        <path d="M45,37.5 C45,38.328 44.328,39 43.5,39 C42.672,39 42,38.328 42,37.5 C42,36.672 42.672,36 43.5,36 C44.328,36 45,36.672 45,37.5 Z" id="Stroke-62"></path>
                        <path d="M82.5,75 L4.5,75 C2.013,75 0,72.987 0,70.5 L0,16.5 C0,14.013 2.013,12 4.5,12 L82.5,12 C84.987,12 87,14.013 87,16.5 L87,70.5 C87,72.987 84.987,75 82.5,75 Z" id="Stroke-64"></path>
                        <path d="M60,12 L27,12 L27,4.5 C27,2.013 29.013,0 31.5,0 L55.5,0 C57.987,0 60,2.013 60,4.5 L60,12 Z" id="Stroke-66"></path>
                    </g>
                </g>
            </g>
        </g>
    </g>
</svg>