<svg xmlns="http://www.w3.org/2000/svg" width="33" height="33" viewBox="0 0 33 33">
    <g fill="none" fill-rule="evenodd" opacity=".601">
        <g fill="#919191">
            <g>
                <path d="M3.79.306c2.09 0 3.787 1.698 3.787 3.788 0 2.092-1.698 3.79-3.787 3.79C1.695 7.884 0 6.186 0 4.094 0 2.004 1.695.306 3.79.306zM.52 31.785h6.536V10.758H.521v21.027zM11.155 10.758h6.268v2.873h.088c.872-1.653 3.004-3.396 6.183-3.396 6.618 0 7.84 4.356 7.84 10.017v11.533h-6.53V21.56c0-2.439-.046-5.575-3.397-5.575-3.4 0-3.922 2.656-3.922 5.398v10.402h-6.53V10.758z" transform="translate(-1479 -7575) translate(1479.18 7575.834)"/>
            </g>
        </g>
    </g>
</svg>
